<svg width="15" height="15" viewBox="0 0 15 15" fill="none" xmlns="http://www.w3.org/2000/svg">
<path fill-rule="evenodd" clip-rule="evenodd" d="M7.5 0C3.35748 0 0 3.44247 0 7.68985C0 11.0868 2.14834 13.9696 5.12909 14.9873C5.50431 15.0566 5.63966 14.82 5.63966 14.6164C5.63966 14.4337 5.63365 13.9495 5.63139 13.3088C3.54472 13.773 3.10407 12.2772 3.10407 12.2772C2.76419 11.3891 2.27166 11.1524 2.27166 11.1524C1.59114 10.6751 2.32354 10.6859 2.32354 10.6859C3.077 10.7399 3.47178 11.4785 3.47178 11.4785C4.14102 12.6535 5.22834 12.3142 5.65395 12.1176C5.72238 11.6203 5.91789 11.2811 6.13144 11.0891C4.46661 10.8956 2.71606 10.2357 2.71606 7.28816C2.71606 6.4501 3.00857 5.76237 3.48606 5.22576C3.41012 5.0307 3.15069 4.24815 3.56051 3.19035C3.56051 3.19035 4.18989 2.98296 5.62237 3.97753C6.22243 3.80714 6.86234 3.72156 7.49925 3.71848C8.13766 3.72156 8.77832 3.80714 9.37613 3.97753C10.8094 2.98219 11.438 3.19035 11.438 3.19035C11.8478 4.24815 11.5906 5.0307 11.5124 5.22576C11.9937 5.76237 12.2824 6.44932 12.2824 7.28816C12.2824 10.2434 10.5304 10.8925 8.85953 11.083C9.12648 11.3204 9.3671 11.7892 9.3671 12.5062C9.3671 13.5347 9.35808 14.3643 9.35808 14.6164C9.35808 14.8223 9.49193 15.0613 9.87467 14.9857C12.8539 13.9665 15 11.0861 15 7.68985C15 3.44247 11.6425 0 7.5 0Z" fill="#FFFFFE"/>
</svg>
