<svg width="17" height="17" viewBox="0 0 17 17" fill="none" xmlns="http://www.w3.org/2000/svg">
<path fill-rule="evenodd" clip-rule="evenodd" d="M8.5 0C3.80514 0 0 3.90146 0 8.71516C0 12.5651 2.43478 15.8322 5.81296 16.9856C6.23822 17.0642 6.39162 16.7959 6.39162 16.5653C6.39162 16.3582 6.3848 15.8094 6.38224 15.0833C4.01735 15.6093 3.51795 13.9142 3.51795 13.9142C3.13274 12.9076 2.57454 12.6393 2.57454 12.6393C1.80329 12.0985 2.63335 12.1107 2.63335 12.1107C3.48727 12.1719 3.93468 13.009 3.93468 13.009C4.69315 14.3406 5.92546 13.9561 6.40781 13.7333C6.48536 13.1697 6.70694 12.7853 6.94897 12.5677C5.06216 12.3484 3.0782 11.6004 3.0782 8.25992C3.0782 7.31011 3.40972 6.53069 3.95087 5.92253C3.8648 5.70146 3.57078 4.81457 4.03524 3.61573C4.03524 3.61573 4.74855 3.38068 6.37202 4.50787C7.05209 4.31476 7.77732 4.21777 8.49915 4.21428C9.22268 4.21777 9.94877 4.31476 10.6263 4.50787C12.2506 3.37981 12.9631 3.61573 12.9631 3.61573C13.4275 4.81457 13.1361 5.70146 13.0474 5.92253C13.5928 6.53069 13.9201 7.30923 13.9201 8.25992C13.9201 11.6091 11.9344 12.3449 10.0408 12.5607C10.3433 12.8298 10.6161 13.3611 10.6161 14.1737C10.6161 15.3393 10.6058 16.2795 10.6058 16.5653C10.6058 16.7986 10.7575 17.0694 11.1913 16.9838C14.5678 15.8287 17 12.5642 17 8.71516C17 3.90146 13.1949 0 8.5 0Z" fill="white"/>
</svg>
