<svg width="17" height="17" viewBox="0 0 17 17" fill="none" xmlns="http://www.w3.org/2000/svg">
<path d="M17 17H13.2222V10.625C13.2222 9.62521 12.1003 8.78881 11.1005 8.78881C10.1007 8.78881 9.44445 9.62521 9.44445 10.625V17H5.66667V5.66667H9.44445V7.55556C10.07 6.54365 11.6699 5.89076 12.7736 5.89076C15.1078 5.89076 17 7.81868 17 10.1528V17ZM3.77778 17H0V5.66667H3.77778V17ZM1.8889 0C2.9321 0 3.77779 0.845684 3.77779 1.88889C3.77779 2.93209 2.9321 3.77778 1.8889 3.77778C0.845693 3.77778 9.45727e-06 2.93209 9.45727e-06 1.88889C9.45727e-06 0.845684 0.845693 0 1.8889 0Z" fill="white"/>
</svg>
