<svg width="15" height="16" viewBox="0 0 15 16" fill="none" xmlns="http://www.w3.org/2000/svg">
<path d="M15 15.3607H11.6667V9.73575C11.6667 8.85358 10.6768 8.11558 9.79459 8.11558C8.91242 8.11558 8.33334 8.85358 8.33334 9.73575V15.3607H5.00001V5.36075H8.33334V7.02741C8.88525 6.13456 10.297 5.55847 11.2708 5.55847C13.3304 5.55847 15 7.25958 15 9.31908V15.3607ZM3.33333 15.3607H0V5.36075H3.33333V15.3607ZM1.66667 0.360748C2.58715 0.360748 3.33334 1.10694 3.33334 2.02741C3.33334 2.94789 2.58715 3.69408 1.66667 3.69408C0.7462 3.69408 8.34465e-06 2.94789 8.34465e-06 2.02741C8.34465e-06 1.10694 0.7462 0.360748 1.66667 0.360748Z" fill="#FFFFFE"/>
</svg>
